<svg version="1.1" id="Icons" xmlns="http://www.w3.org/2000/svg" xmlns:xlink="http://www.w3.org/1999/xlink" 
	 viewBox="0 0 32 32" xml:space="preserve">
<style type="text/css">
	.st0{fill:none;stroke:#ffffff;stroke-width:2;stroke-linecap:round;stroke-linejoin:round;stroke-miterlimit:10;}
</style>
<circle class="st0" cx="9" cy="23" r="7"/>
<circle class="st0" cx="27" cy="26" r="4"/>
<line class="st0" x1="19" y1="5" x2="7" y2="5"/>
<path class="st0" d="M1.9,16c1.8-1.9,4.3-3,7.1-3c5.5,0,10,4.5,10,10c0,0.3,0,0.7,0,1"/>
<polyline class="st0" points="30.5,24 31,24 31,13 19.2,13 16,5 7,5 5.2,13.8 "/>
<polyline class="st0" points="19,24 22,24 23.5,24 "/>
<circle class="st0" cx="9" cy="23" r="2"/>
<path class="st0" d="M23,8L23,8c1.1,0,2,0.9,2,2v6"/>
</svg>